<svg width="64" height="78" viewBox="0 0 64 78" fill="none" xmlns="http://www.w3.org/2000/svg">
<path d="M29.9597 53.872L4.45719 70.3736V22.124C4.45719 16.836 4.46497 13.2389 4.82714 10.5451C5.17513 7.9568 5.78869 6.75798 6.6046 5.94207C7.42052 5.12615 8.61934 4.51259 11.2076 4.1646C13.9014 3.80244 17.4986 3.79465 22.7865 3.79465H41.1158C46.4038 3.79465 50.001 3.80244 52.6947 4.1646C55.283 4.51259 56.4819 5.12615 57.2978 5.94207C58.1137 6.75798 58.7273 7.9568 59.0752 10.5451C59.4374 13.2389 59.4452 16.836 59.4452 22.124V70.3736L33.9427 53.872L31.9512 52.5834L29.9597 53.872Z" stroke="white" stroke-width="7.33173"/>
</svg>
